# xmcd CD database file
#
# Track frame offsets:
#	150
#	16647
#	34797
#	53925
#	73288
#	75343
#	99164
#	125211
#	147096
#	150590
#	169947
#	191504
#	207537
#
# Disc length: 2793 seconds
#
# Revision: 0
# Processed by: cddbd v1.5.2PL0 Copyright (c) Steve Scherf et al.
# Submitted via: CDex 1.70beta2
#
DISCID=ad0ae70d
DTITLE=Mary Gauthier - The Foundling
DYEAR=2010
DGENRE=Country
TTITLE0=The Foundling
TTITLE1=Mama Here, Mam Gone
TTITLE2=Goodbye
TTITLE3=Sideshow
TTITLE4=Interlude 1
TTITLE5=Blood Is Blood
TTITLE6=March 11, 1962
TTITLE7=Walk In The Water
TTITLE8=Interlude 2
TTITLE9=Sweet Words
TTITLE10=The Orphan King
TTITLE11=Another Day Borrowed
TTITLE12=Coda
EXTD=YEAR: 2010
EXTT0=
EXTT1=
EXTT2=
EXTT3=
EXTT4=
EXTT5=
EXTT6=
EXTT7=
EXTT8=
EXTT9=
EXTT10=
EXTT11=
EXTT12=
PLAYORDER=
